<svg width="17" height="12" viewBox="0 0 17 12" fill="none" xmlns="http://www.w3.org/2000/svg">
<path d="M1.688 2.032V5.76H5.752V6.96H1.688V10.8H6.232V12H0.232V0.832H6.232V2.032H1.688ZM12.7071 3.072C13.7738 3.072 14.6378 3.39733 15.2991 4.048C15.9605 4.688 16.2911 5.616 16.2911 6.832V12H14.8511V7.04C14.8511 6.16533 14.6325 5.49867 14.1951 5.04C13.7578 4.57067 13.1605 4.336 12.4031 4.336C11.6351 4.336 11.0218 4.576 10.5631 5.056C10.1151 5.536 9.89113 6.23467 9.89113 7.152V12H8.43513V3.232H9.89113V4.48C10.1791 4.032 10.5685 3.68533 11.0591 3.44C11.5605 3.19467 12.1098 3.072 12.7071 3.072Z" fill="white"/>
</svg>
