<svg width="16" height="16" viewBox="0 0 16 16" fill="none" xmlns="http://www.w3.org/2000/svg">
<path d="M8.19981 16H7.9998C6.6998 16 5.5998 15.9999 4.4998 15.8999C3.4998 15.8999 2.49979 15.4999 1.79979 14.8999C1.09979 14.2999 0.499787 13.5 0.299787 12.5C0.0997874 11.7 -0.000224799 10.8 0.0997752 10C0.0997752 9.4 0.0997752 8.7 0.0997752 8C0.0997752 7.3 0.0997752 6.6 0.0997752 6C0.0997752 5.2 0.199787 4.3 0.299787 3.5C0.499787 2.6 0.999787 1.7001 1.79979 1.1001C2.59979 0.500098 3.4998 0.100098 4.4998 0.100098C5.5998 9.76548e-05 6.7998 0 7.9998 0C9.2998 0 10.3998 9.76548e-05 11.4998 0.100098C12.4998 0.100098 13.4998 0.500098 14.1998 1.1001C14.8998 1.7001 15.4998 2.5 15.6998 3.5C15.8998 4.3 15.9998 5.2 15.8998 6C15.8998 6.6 15.8998 7.3 15.8998 8C15.8998 8.7 15.8998 9.4 15.8998 10C15.8998 10.8 15.7998 11.7 15.6998 12.5C15.4998 13.4 14.9998 14.2999 14.1998 14.8999C13.3998 15.4999 12.4998 15.8999 11.4998 15.8999C10.4998 15.9999 9.39981 16 8.19981 16ZM7.9998 14.8C9.1998 14.8 10.3998 14.8 11.4998 14.7C12.1998 14.7 12.8998 14.3999 13.4998 13.8999C13.9998 13.4999 14.3998 12.9 14.4998 12.2C14.6998 11.5 14.6998 10.7 14.6998 10C14.6998 9.4 14.6998 8.7 14.6998 8C14.6998 7.3 14.6998 6.6 14.6998 6C14.6998 5.3 14.6998 4.50005 14.4998 3.80005C14.2998 3.10005 13.9998 2.5001 13.3998 2.1001C12.7998 1.6001 12.0998 1.40005 11.3998 1.30005C10.2998 1.20005 9.19982 1.19995 7.89982 1.19995C6.69982 1.19995 5.49982 1.20005 4.39982 1.30005C3.69982 1.30005 2.99982 1.6001 2.39982 2.1001C1.89982 2.5001 1.49982 3.10005 1.39982 3.80005C1.19982 4.50005 1.19981 5.3 1.19981 6C1.19981 6.6 1.19981 7.3 1.19981 8C1.19981 8.7 1.19981 9.4 1.19981 10C1.19981 10.7 1.19982 11.5 1.39982 12.2C1.59982 12.9 1.8998 13.4999 2.4998 13.8999C3.0998 14.3999 3.7998 14.6 4.4998 14.7C5.5998 14.7 6.7998 14.8 7.9998 14.8ZM7.9998 11.8999C5.7998 11.8999 4.09978 10.2 4.09978 8C4.09978 5.8 5.7998 4.1001 7.9998 4.1001C10.1998 4.1001 11.8998 5.8 11.8998 8C11.8998 10.2 10.0998 11.8999 7.9998 11.8999ZM7.9998 5.30005C6.4998 5.30005 5.29979 6.5 5.29979 8C5.29979 9.5 6.4998 10.7 7.9998 10.7C9.4998 10.7 10.6998 9.5 10.6998 8C10.5998 6.5 9.3998 5.30005 7.9998 5.30005ZM12.2998 2.80005C11.7998 2.80005 11.3998 3.19995 11.3998 3.69995C11.3998 4.19995 11.7998 4.6001 12.2998 4.6001C12.7998 4.6001 13.1998 4.19995 13.1998 3.69995C13.2998 3.29995 12.7998 2.80005 12.2998 2.80005Z" fill="#CEBD88"/>
</svg>
