<svg width="20" height="35" viewBox="0 0 20 35" fill="none" xmlns="http://www.w3.org/2000/svg">
<path d="M2.10517 0C2.67534 0.175439 3.07008 0.570175 3.46482 0.964912C8.50867 6.00877 13.5525 11.0526 18.5964 16.0965C19.2981 16.7982 19.4736 17.6316 18.9911 18.3772C18.9034 18.5526 18.7718 18.7281 18.5964 18.8596C13.4648 24.0351 8.33324 29.2105 3.1578 34.386C2.19289 35.3509 0.745517 35.1754 0.175342 33.9912C-0.131676 33.3772 -0.0439564 32.7632 0.35078 32.193C0.482359 32.0175 0.613938 31.886 0.745517 31.7544C5.39464 27.1053 10.0438 22.4561 14.7367 17.7632C14.8245 17.6754 14.956 17.5877 15.0876 17.5439C15.0876 17.5 15.0876 17.4561 15.0876 17.4123C14.956 17.3246 14.8245 17.2807 14.7367 17.193C10.0438 12.5 5.35078 7.85088 0.701658 3.15789C-9.67653e-05 2.45614 -0.131676 1.57895 0.306921 0.833333C0.570079 0.394737 1.00868 0.175439 1.49113 0C1.66657 0 1.88587 0 2.10517 0Z" fill="white"/>
</svg>
