<svg width="69" height="21" viewBox="0 0 69 21" fill="none" xmlns="http://www.w3.org/2000/svg">
<path d="M0.12 16.74C0.32 16.0733 0.546667 15.3467 0.8 14.56C1.05333 13.76 1.34667 12.8267 1.68 11.76C2.01333 10.68 2.4 9.4 2.84 7.92C3.28 6.44 3.78667 4.69333 4.36 2.68C4.37333 2.64 4.4 2.54 4.44 2.38C4.48 2.22 4.5 2.06 4.5 1.9C4.5 1.79333 4.48 1.72 4.44 1.68C4.41333 1.64 4.34667 1.62 4.24 1.62C3.96 1.62 3.68667 1.73333 3.42 1.96C3.16667 2.18667 2.93333 2.47333 2.72 2.82C2.52 3.15333 2.36 3.50667 2.24 3.88C2.13333 4.24 2.08 4.56667 2.08 4.86C2.08 5.18 2.14667 5.49333 2.28 5.8C1.69333 5.8 1.28 5.68 1.04 5.44C0.8 5.18667 0.68 4.87333 0.68 4.5C0.68 4.04667 0.82 3.59333 1.1 3.14C1.38 2.67333 1.73333 2.25333 2.16 1.88C2.6 1.49333 3.05333 1.18667 3.52 0.96C4 0.719999 4.43333 0.599999 4.82 0.599999C5.28667 0.599999 5.66667 0.773333 5.96 1.12C6.26667 1.45333 6.51333 1.91333 6.7 2.5C6.9 3.08667 7.06667 3.75333 7.2 4.5C7.33333 5.24667 7.46 6.03333 7.58 6.86C7.74 7.92667 7.86667 8.78 7.96 9.42C8.05333 10.0467 8.12667 10.5467 8.18 10.92C8.24667 11.2933 8.3 11.6067 8.34 11.86C8.39333 12.1133 8.44667 12.4 8.5 12.72C8.66 12.08 8.82 11.4067 8.98 10.7C9.15333 9.98 9.32667 9.25333 9.5 8.52C9.67333 7.78667 9.84 7.07333 10 6.38C10.1733 5.67333 10.3467 5.01333 10.52 4.4C10.6933 3.78667 10.86 3.24667 11.02 2.78C11.1933 2.3 11.36 1.92 11.52 1.64C11.64 1.42667 11.8267 1.2 12.08 0.96C12.3467 0.706666 12.7 0.58 13.14 0.58C12.9133 1.18 12.6533 1.92667 12.36 2.82C12.08 3.7 11.7933 4.66 11.5 5.7C11.2067 6.72667 10.92 7.78 10.64 8.86C10.3733 9.92667 10.1333 10.9667 9.92 11.98C9.70667 12.98 9.53333 13.8933 9.4 14.72C9.28 15.5467 9.22 16.22 9.22 16.74C8.72667 16.74 8.32 16.62 8 16.38C7.69333 16.1533 7.46 15.7 7.3 15.02C7.24667 14.7933 7.16667 14.4133 7.06 13.88C6.95333 13.3467 6.83333 12.72 6.7 12C6.56667 11.2667 6.42667 10.5 6.28 9.7C6.13333 8.9 5.99333 8.12 5.86 7.36C5.72667 6.58667 5.60667 5.9 5.5 5.3C5.39333 4.68667 5.30667 4.22 5.24 3.9C4.64 6.08667 4.12667 7.94 3.7 9.46C3.27333 10.9667 2.9 12.2 2.58 13.16C2.26 14.1067 1.97333 14.84 1.72 15.36C1.46667 15.88 1.21333 16.24 0.96 16.44C0.706667 16.64 0.426667 16.74 0.12 16.74ZM13.6273 15.6C13.0407 15.6 12.6007 15.4267 12.3073 15.08C12.014 14.7333 11.8673 14.3133 11.8673 13.82C11.8673 13.5133 11.9207 13.1267 12.0273 12.66C12.134 12.1933 12.2807 11.7067 12.4673 11.2C12.6673 10.68 12.894 10.1933 13.1473 9.74C13.4007 9.28667 13.674 8.92 13.9673 8.64C14.2607 8.34667 14.554 8.2 14.8473 8.2C15.0073 8.2 15.1473 8.25333 15.2673 8.36C15.3873 8.45333 15.4473 8.59333 15.4473 8.78C15.4473 8.95333 15.3407 9.21333 15.1273 9.56C14.9273 9.90667 14.6873 10.3067 14.4073 10.76C14.1407 11.2133 13.9007 11.6867 13.6873 12.18C13.4873 12.66 13.3873 13.12 13.3873 13.56C13.3873 13.9867 13.4607 14.2733 13.6073 14.42C13.7673 14.5533 13.994 14.62 14.2873 14.62C14.7407 14.62 15.234 14.3933 15.7673 13.94C16.3007 13.4867 16.854 12.6933 17.4273 11.56L17.7273 11.88C17.2607 13.0533 16.6673 13.9667 15.9473 14.62C15.2273 15.2733 14.454 15.6 13.6273 15.6ZM15.9873 6.58C15.734 6.58 15.5007 6.52 15.2873 6.4C15.0873 6.26667 14.9873 6.06667 14.9873 5.8C14.9873 5.48 15.1607 5.20667 15.5073 4.98C15.854 4.75333 16.214 4.64 16.5873 4.64C16.8273 4.64 17.0273 4.69333 17.1873 4.8C17.3607 4.90667 17.4473 5.1 17.4473 5.38C17.4473 5.66 17.294 5.93333 16.9873 6.2C16.6807 6.45333 16.3473 6.58 15.9873 6.58ZM17.8702 20.6C17.5368 20.6 17.2235 20.4933 16.9302 20.28C16.6502 20.08 16.5102 19.7533 16.5102 19.3C16.5102 18.8733 16.6368 18.4867 16.8902 18.14C17.1435 17.8067 17.4702 17.4933 17.8702 17.2C18.2702 16.92 18.6968 16.66 19.1502 16.42C19.6168 16.1933 20.0635 15.98 20.4902 15.78C20.6368 15.3933 20.7968 14.9067 20.9702 14.32C21.1568 13.72 21.3168 13.1667 21.4502 12.66C21.0368 13.2333 20.5968 13.74 20.1302 14.18C19.6635 14.62 19.1435 14.84 18.5702 14.84C18.3302 14.84 18.0768 14.7933 17.8102 14.7C17.5435 14.5933 17.3168 14.42 17.1302 14.18C16.9568 13.9267 16.8702 13.5933 16.8702 13.18C16.8702 12.8333 16.9302 12.4133 17.0502 11.92C17.1835 11.4267 17.3435 10.9467 17.5302 10.48C17.7302 10 17.9368 9.60667 18.1502 9.3C18.3635 8.98 18.5502 8.82 18.7102 8.82C18.7902 8.82 18.9035 8.85333 19.0502 8.92C19.2102 8.97333 19.3635 9.05333 19.5102 9.16C19.6568 9.25333 19.7502 9.36 19.7902 9.48C19.6702 9.64 19.5368 9.87333 19.3902 10.18C19.2435 10.4733 19.1035 10.8067 18.9702 11.18C18.8368 11.54 18.7235 11.8933 18.6302 12.24C18.5502 12.5867 18.5102 12.8867 18.5102 13.14C18.5102 13.34 18.5502 13.5133 18.6302 13.66C18.7102 13.8067 18.8635 13.88 19.0902 13.88C19.3835 13.88 19.6835 13.76 19.9902 13.52C20.3102 13.28 20.6168 12.9733 20.9102 12.6C21.2168 12.2267 21.4902 11.8467 21.7302 11.46C21.7568 11.3667 21.7835 11.22 21.8102 11.02C21.8368 10.82 21.8835 10.6133 21.9502 10.4C22.0168 10.1733 22.1302 9.96667 22.2902 9.78C22.4635 9.59333 22.7035 9.5 23.0102 9.5C23.1168 9.5 23.2168 9.50667 23.3102 9.52C23.4035 9.53333 23.5168 9.55333 23.6502 9.58C23.6502 9.78 23.5768 10.1733 23.4302 10.76C23.2968 11.3333 23.1168 12 22.8902 12.76C22.6635 13.52 22.4102 14.28 22.1302 15.04C22.6902 14.8133 23.2702 14.44 23.8702 13.92C24.4835 13.3867 24.9768 12.6333 25.3502 11.66L25.6902 11.94C25.4902 12.6067 25.1835 13.1867 24.7702 13.68C24.3702 14.1733 23.9168 14.5933 23.4102 14.94C22.9035 15.2867 22.3902 15.5733 21.8702 15.8C21.5102 16.6667 21.1168 17.4667 20.6902 18.2C20.2768 18.9333 19.8368 19.5133 19.3702 19.94C18.9035 20.38 18.4035 20.6 17.8702 20.6ZM17.6702 19.86C17.9235 19.86 18.2768 19.5933 18.7302 19.06C19.1835 18.5267 19.6435 17.7267 20.1102 16.66C19.6835 16.8733 19.2502 17.12 18.8102 17.4C18.3835 17.6933 18.0235 18 17.7302 18.32C17.4368 18.64 17.2902 18.9667 17.2902 19.3C17.2902 19.4333 17.3168 19.56 17.3702 19.68C17.4368 19.8 17.5368 19.86 17.6702 19.86ZM27.558 15.88C27.0113 15.88 26.5713 15.74 26.238 15.46C25.918 15.1933 25.758 14.8133 25.758 14.32C25.758 13.8267 25.918 13.3667 26.238 12.94C26.5713 12.5133 27.0046 12.14 27.538 11.82C28.0846 11.4867 28.6846 11.22 29.338 11.02C29.9913 10.8067 30.6446 10.68 31.298 10.64L31.018 11.38C30.658 11.3933 30.2513 11.4933 29.798 11.68C29.3446 11.8667 28.9046 12.1133 28.478 12.42C28.0646 12.7267 27.718 13.06 27.438 13.42C27.1713 13.78 27.038 14.14 27.038 14.5C27.038 14.8467 27.2113 15.02 27.558 15.02C27.9713 15.02 28.3846 14.8533 28.798 14.52C29.2246 14.1733 29.6113 13.74 29.958 13.22C30.3046 12.7 30.5846 12.1667 30.798 11.62C31.0113 11.0733 31.118 10.6 31.118 10.2C31.118 9.8 31.0113 9.44 30.798 9.12C30.598 8.8 30.2513 8.64 29.758 8.64C29.1846 8.64 28.6846 8.83333 28.258 9.22C27.8446 9.59333 27.5246 10.14 27.298 10.86C27.0846 10.8333 26.8846 10.76 26.698 10.64C26.5113 10.5067 26.418 10.32 26.418 10.08C26.418 9.68 26.578 9.30667 26.898 8.96C27.2313 8.61333 27.6646 8.33333 28.198 8.12C28.7446 7.89333 29.3246 7.78 29.938 7.78C30.8313 7.78 31.5113 8.01333 31.978 8.48C32.4446 8.93333 32.678 9.50667 32.678 10.2C32.678 10.7867 32.5246 11.4133 32.218 12.08C31.9246 12.7333 31.5313 13.3533 31.038 13.94C30.5446 14.5133 29.9913 14.98 29.378 15.34C28.778 15.7 28.1713 15.88 27.558 15.88ZM41.0219 16.46C40.2619 16.46 39.6819 16.22 39.2819 15.74C38.8952 15.2733 38.7019 14.6267 38.7019 13.8C38.7019 13.1467 38.8152 12.3733 39.0419 11.48C39.2685 10.5867 39.5685 9.65333 39.9419 8.68C40.3152 7.69333 40.7285 6.73333 41.1819 5.8C41.6485 4.85333 42.1219 4 42.6019 3.24C43.0819 2.46667 43.5352 1.85333 43.9619 1.4C44.3885 0.946666 44.7552 0.719999 45.0619 0.719999C45.3285 0.719999 45.5285 0.873332 45.6619 1.18C45.7952 1.48667 45.8685 1.79333 45.8819 2.1C45.8819 2.47333 45.8019 2.92667 45.6419 3.46C45.4819 3.99333 45.2552 4.56 44.9619 5.16C44.6685 5.76 44.3285 6.35333 43.9419 6.94C43.5552 7.52667 43.1285 8.06 42.6619 8.54C42.2085 9.02 41.7352 9.4 41.2419 9.68C41.1485 9.85333 41.0285 10.1533 40.8819 10.58C40.7485 11.0067 40.6219 11.4933 40.5019 12.04C40.3952 12.5867 40.3419 13.1333 40.3419 13.68C40.3419 14.2133 40.4152 14.6667 40.5619 15.04C40.7219 15.4267 40.9952 15.62 41.3819 15.62C41.7285 15.62 42.1019 15.46 42.5019 15.14C42.9019 14.82 43.2285 14.4333 43.4819 13.98C42.9885 13.7133 42.6152 13.34 42.3619 12.86C42.1085 12.38 41.9819 11.8733 41.9819 11.34C41.9819 10.6867 42.1552 10.16 42.5019 9.76C42.8619 9.36 43.2952 9.16 43.8019 9.16C44.2285 9.16 44.5819 9.32667 44.8619 9.66C45.1419 9.98 45.2819 10.48 45.2819 11.16C45.2819 11.5467 45.2285 11.96 45.1219 12.4C45.0285 12.8267 44.8819 13.2533 44.6819 13.68C44.7485 13.68 44.8019 13.6867 44.8419 13.7C44.8952 13.7 44.9619 13.7 45.0419 13.7C45.5085 13.7 45.9085 13.5733 46.2419 13.32C46.5752 13.0667 46.8552 12.7667 47.0819 12.42C47.3085 12.0733 47.4885 11.76 47.6219 11.48L47.9219 11.9C47.5885 12.6867 47.1752 13.2867 46.6819 13.7C46.2019 14.1133 45.5685 14.32 44.7819 14.32C44.7152 14.32 44.6419 14.32 44.5619 14.32C44.4952 14.32 44.4285 14.3133 44.3619 14.3C43.9885 14.9 43.5219 15.4067 42.9619 15.82C42.4152 16.2467 41.7685 16.46 41.0219 16.46ZM43.8219 13.32C43.9419 13.0533 44.0285 12.7867 44.0819 12.52C44.1485 12.24 44.1819 11.94 44.1819 11.62C44.1819 11.14 44.1219 10.7867 44.0019 10.56C43.8952 10.3333 43.7619 10.22 43.6019 10.22C43.4285 10.22 43.2752 10.34 43.1419 10.58C43.0219 10.82 42.9619 11.1067 42.9619 11.44C42.9619 11.72 43.0219 12.0467 43.1419 12.42C43.2619 12.7933 43.4885 13.0933 43.8219 13.32ZM41.6219 8.42C41.9552 8.11333 42.2752 7.76 42.5819 7.36C42.9019 6.94667 43.1952 6.52 43.4619 6.08C43.7419 5.62667 43.9819 5.18667 44.1819 4.76C44.3952 4.32 44.5685 3.92667 44.7019 3.58C44.8352 3.22 44.9152 2.93333 44.9419 2.72C44.9419 2.69333 44.9419 2.67333 44.9419 2.66C44.9419 2.63333 44.9419 2.61333 44.9419 2.6C44.8219 2.64 44.6219 2.83333 44.3419 3.18C44.0752 3.52667 43.7685 3.98 43.4219 4.54C43.0885 5.08667 42.7619 5.7 42.4419 6.38C42.1219 7.04667 41.8485 7.72667 41.6219 8.42ZM48.7055 15.6C48.1188 15.6 47.6788 15.4267 47.3855 15.08C47.0921 14.7333 46.9455 14.3133 46.9455 13.82C46.9455 13.5133 46.9988 13.1267 47.1055 12.66C47.2121 12.1933 47.3588 11.7067 47.5455 11.2C47.7455 10.68 47.9721 10.1933 48.2255 9.74C48.4788 9.28667 48.7521 8.92 49.0455 8.64C49.3388 8.34667 49.6321 8.2 49.9255 8.2C50.0855 8.2 50.2255 8.25333 50.3455 8.36C50.4655 8.45333 50.5255 8.59333 50.5255 8.78C50.5255 8.95333 50.4188 9.21333 50.2055 9.56C50.0055 9.90667 49.7655 10.3067 49.4855 10.76C49.2188 11.2133 48.9788 11.6867 48.7655 12.18C48.5655 12.66 48.4655 13.12 48.4655 13.56C48.4655 13.9867 48.5388 14.2733 48.6855 14.42C48.8455 14.5533 49.0721 14.62 49.3655 14.62C49.8188 14.62 50.3121 14.3933 50.8455 13.94C51.3788 13.4867 51.9321 12.6933 52.5055 11.56L52.8055 11.88C52.3388 13.0533 51.7455 13.9667 51.0255 14.62C50.3055 15.2733 49.5321 15.6 48.7055 15.6ZM51.0655 6.58C50.8121 6.58 50.5788 6.52 50.3655 6.4C50.1655 6.26667 50.0655 6.06667 50.0655 5.8C50.0655 5.48 50.2388 5.20667 50.5855 4.98C50.9321 4.75333 51.2921 4.64 51.6655 4.64C51.9055 4.64 52.1055 4.69333 52.2655 4.8C52.4388 4.90667 52.5255 5.1 52.5255 5.38C52.5255 5.66 52.3721 5.93333 52.0655 6.2C51.7588 6.45333 51.4255 6.58 51.0655 6.58ZM52.1483 20.6C51.6816 20.6 51.3149 20.5067 51.0483 20.32C50.7683 20.1467 50.6283 19.8533 50.6283 19.44C50.6283 18.9867 50.7749 18.58 51.0683 18.22C51.3483 17.86 51.7283 17.52 52.2083 17.2C52.7016 16.88 53.2416 16.5533 53.8283 16.22C54.4283 15.8867 55.0283 15.52 55.6283 15.12C55.6149 14.6933 55.4816 14.2867 55.2283 13.9C54.9883 13.5133 54.5616 13.1 53.9483 12.66C54.4683 12.5133 54.9083 12.2867 55.2683 11.98C55.6283 11.66 55.9016 11.3133 56.0883 10.94C56.2749 10.5533 56.3683 10.1933 56.3683 9.86C56.3683 9.62 56.3083 9.40667 56.1883 9.22C56.0683 9.02 55.8549 8.92 55.5483 8.92C55.1483 8.92 54.7749 9.09333 54.4283 9.44C54.0816 9.78667 53.7483 10.2333 53.4283 10.78C53.1216 11.3267 52.8216 11.9133 52.5283 12.54L52.1483 12.22C52.4416 11.4333 52.7483 10.72 53.0683 10.08C53.4016 9.42667 53.7883 8.90667 54.2283 8.52C54.6816 8.13333 55.2216 7.94 55.8483 7.94C56.3949 7.94 56.8616 8.09333 57.2483 8.4C57.6349 8.70667 57.8283 9.15333 57.8283 9.74C57.8283 10.1533 57.7216 10.56 57.5083 10.96C57.3083 11.3467 57.0349 11.7067 56.6883 12.04C56.3549 12.36 55.9816 12.6267 55.5683 12.84C55.8616 13.0667 56.1149 13.3267 56.3283 13.62C56.5549 13.9133 56.7349 14.2 56.8683 14.48C57.3483 14.1067 57.7816 13.6933 58.1683 13.24C58.5549 12.7867 58.8616 12.2667 59.0883 11.68L59.3483 12C59.1483 12.5867 58.8483 13.14 58.4483 13.66C58.0616 14.1667 57.6016 14.6133 57.0683 15C57.0949 15.0933 57.1149 15.1867 57.1283 15.28C57.1416 15.3867 57.1483 15.5133 57.1483 15.66C57.1483 16.2467 57.0149 16.8267 56.7483 17.4C56.4816 17.9867 56.1083 18.52 55.6283 19C55.1616 19.48 54.6283 19.8667 54.0283 20.16C53.4416 20.4533 52.8149 20.6 52.1483 20.6ZM51.8683 19.84C52.1083 19.84 52.4149 19.7467 52.7883 19.56C53.1749 19.3867 53.5616 19.1267 53.9483 18.78C54.3483 18.4467 54.6949 18.04 54.9883 17.56C55.2949 17.08 55.4949 16.5333 55.5883 15.92C55.0949 16.24 54.5949 16.54 54.0883 16.82C53.5816 17.1 53.1216 17.3733 52.7083 17.64C52.2949 17.92 51.9616 18.1933 51.7083 18.46C51.4549 18.7267 51.3283 19.0067 51.3283 19.3C51.3283 19.4867 51.3816 19.62 51.4883 19.7C51.5949 19.7933 51.7216 19.84 51.8683 19.84ZM63.9094 12.62C63.576 12.4467 63.3494 12.2933 63.2294 12.16C63.1227 12.0133 63.0694 11.7933 63.0694 11.5C63.0694 10.8733 63.196 10.3067 63.4494 9.8C63.7027 9.28 64.016 8.79333 64.3894 8.34C64.776 7.87333 65.156 7.40667 65.5294 6.94C65.916 6.47333 66.236 5.97333 66.4894 5.44C66.7427 4.89333 66.8694 4.28667 66.8694 3.62C66.8694 2.9 66.7227 2.35333 66.4294 1.98C66.136 1.59333 65.7694 1.4 65.3294 1.4C64.876 1.4 64.4227 1.58 63.9694 1.94C63.516 2.3 63.136 2.78 62.8294 3.38C62.536 3.98 62.3894 4.64667 62.3894 5.38C62.3894 5.60667 62.4027 5.82667 62.4294 6.04C62.4694 6.24 62.5294 6.47333 62.6094 6.74C61.956 6.63333 61.516 6.43333 61.2894 6.14C61.076 5.84667 60.9694 5.48667 60.9694 5.06C60.9694 4.3 61.1494 3.58 61.5094 2.9C61.8694 2.22 62.3827 1.66667 63.0494 1.24C63.716 0.813333 64.496 0.599999 65.3894 0.599999C66.296 0.599999 67.0227 0.84 67.5694 1.32C68.116 1.78667 68.3894 2.46667 68.3894 3.36C68.3894 3.94667 68.2827 4.47333 68.0694 4.94C67.856 5.39333 67.5827 5.82 67.2494 6.22C66.9294 6.60667 66.5827 7 66.2094 7.4C65.8494 7.78667 65.5094 8.21333 65.1894 8.68C64.8827 9.13333 64.636 9.66 64.4494 10.26C64.316 10.7133 64.2294 11.1133 64.1894 11.46C64.1627 11.7933 64.0694 12.18 63.9094 12.62ZM63.0494 15.2C62.836 15.2 62.6494 15.14 62.4894 15.02C62.3294 14.9133 62.2494 14.7533 62.2494 14.54C62.2494 14.2733 62.3894 14.0467 62.6694 13.86C62.9627 13.6733 63.256 13.58 63.5494 13.58C63.7494 13.58 63.916 13.6267 64.0494 13.72C64.1827 13.8133 64.2494 13.96 64.2494 14.16C64.2494 14.4133 64.1227 14.6533 63.8694 14.88C63.6294 15.0933 63.356 15.2 63.0494 15.2Z" fill="#CEBD88"/>
</svg>
