<svg width="162" height="86" viewBox="0 0 162 86" fill="none" xmlns="http://www.w3.org/2000/svg">
<path d="M27.08 86V84.8H24.56C22.8 84.8 21.24 84.2 19.88 83C18.6 81.72 17.96 80.2 17.96 78.44V0.319994H16.76C15.56 1.68 14.32 2.84 13.04 3.79999C11.76 4.68 10.44 5.4 9.08 5.95999C7.72 6.44 6.28 6.84 4.76 7.16C3.32 7.48 1.8 7.75999 0.2 8V9.19999H4.76C6.6 9.19999 7.96 9.72 8.84 10.76C9.8 11.72 10.28 13.16 10.28 15.08V78.32C10.28 80.08 9.64 81.6 8.36 82.88C7.08 84.16 5.52 84.8 3.68 84.8H1.16L1.04 86H27.08ZM74.6122 12.32L81.2122 0.319994H82.4122V85.88H74.6122V12.32ZM81.2122 0.319994L82.4122 4.75999L46.2922 49.52H87.5722C89.8122 49.52 91.2922 49.32 92.0122 48.92C92.7322 48.52 93.4522 47.92 94.1722 47.12H95.3722L92.8522 56.12H37.2922V54.92L81.2122 0.319994ZM82.4122 78.32C82.4122 80.08 83.0522 81.6 84.3322 82.88C85.6922 84.16 87.2522 84.8 89.0122 84.8H90.3322V86H66.5722L66.6922 84.8H67.8922C69.7322 84.8 71.2922 84.2 72.5722 83C73.9322 81.72 74.6122 80.16 74.6122 78.32H82.4122ZM110.446 21.68L108.286 8.11999C109.806 6.59999 111.766 5.27999 114.166 4.16C116.566 2.96 119.126 2.04 121.846 1.39999C124.566 0.679995 127.206 0.319994 129.766 0.319994C135.046 0.319994 139.646 1.27999 143.566 3.19999C147.566 5.12 150.646 7.84 152.806 11.36C154.966 14.88 156.046 19.12 156.046 24.08C156.046 28.16 155.126 32.32 153.286 36.56C151.526 40.72 149.206 44.84 146.326 48.92C143.446 52.92 140.326 56.8 136.966 60.56C133.606 64.24 130.326 67.68 127.126 70.88C123.926 74 121.126 76.8 118.726 79.28H146.326C148.726 79.28 150.686 78.96 152.206 78.32C153.806 77.68 155.206 76.6 156.406 75.08C157.686 73.56 159.006 71.56 160.366 69.08H161.566L155.926 86H106.606V84.8C109.406 82.24 112.566 79.12 116.086 75.44C119.686 71.68 123.286 67.64 126.886 63.32C130.486 59 133.806 54.56 136.846 50C139.886 45.44 142.326 41 144.166 36.68C146.086 32.28 147.046 28.24 147.046 24.56C147.046 18.08 145.486 13 142.366 9.31999C139.326 5.55999 135.126 3.76 129.766 3.92C124.166 4 119.726 5.56 116.446 8.6C113.166 11.64 111.566 16 111.646 21.68H110.446Z" fill="#CEBD88"/>
</svg>
