<svg width="126" height="91" viewBox="0 0 126 91" fill="none" xmlns="http://www.w3.org/2000/svg">
<path d="M13.08 90.44L12.72 89.6C18.4 88 23.24 85.44 27.24 81.92C31.24 78.4 34.48 74.2 36.96 69.32C39.52 64.44 41.4 59.16 42.6 53.48C43.8 47.72 44.4 41.84 44.4 35.84C44.4 29.36 43.72 23.76 42.36 19.04C41 14.24 38.96 10.56 36.24 8C33.52 5.44 30.08 4.16 25.92 4.16C22.16 4.16 19.04 5.2 16.56 7.28C14.16 9.35999 12.4 12.12 11.28 15.56C10.16 18.92 9.64 22.6 9.72 26.6C9.8 30.44 10.44 33.88 11.64 36.92C12.92 39.96 14.76 42.32 17.16 44C19.56 45.68 22.48 46.48 25.92 46.4C28.4 46.32 30.8 45.8 33.12 44.84C35.52 43.8 37.52 42.24 39.12 40.16L39.72 41.24C37.72 43.8 35.4 45.84 32.76 47.36C30.12 48.88 27.36 49.88 24.48 50.36C21.6 50.84 18.76 50.76 15.96 50.12C13.24 49.4 10.72 48.16 8.4 46.4C6.16 44.56 4.36 42.16 3 39.2C1.64 36.16 0.88 32.52 0.72 28.28C0.56 22.6 1.56 17.72 3.72 13.64C5.88 9.55999 8.88 6.39999 12.72 4.16C16.64 1.84 21.04 0.639997 25.92 0.559999C34.24 0.399996 40.88 3.36 45.84 9.44C50.88 15.44 53.4 24 53.4 35.12C53.4 41.12 52.6 47.24 51 53.48C49.4 59.64 46.92 65.44 43.56 70.88C40.28 76.24 36.12 80.68 31.08 84.2C26.04 87.72 20.04 89.8 13.08 90.44ZM96.9084 0.319994C102.748 0.319994 107.748 2.08 111.908 5.6C116.148 9.12 119.388 14.16 121.628 20.72C123.948 27.2 125.108 34.96 125.108 44C125.108 53.04 123.948 60.84 121.628 67.4C119.388 73.88 116.148 78.88 111.908 82.4C107.748 85.92 102.748 87.68 96.9084 87.68C91.0684 87.68 86.0284 85.92 81.7884 82.4C77.6284 78.88 74.3884 73.88 72.0684 67.4C69.8284 60.84 68.7084 53.04 68.7084 44C68.7084 34.96 69.8284 27.2 72.0684 20.72C74.3884 14.16 77.6284 9.12 81.7884 5.6C86.0284 2.08 91.0684 0.319994 96.9084 0.319994ZM96.9084 3.92C90.8284 3.92 85.9884 7.52 82.3884 14.72C78.8684 21.84 77.1084 31.6 77.1084 44C77.1084 56.4 78.8684 66.2 82.3884 73.4C85.9884 80.52 90.8284 84.08 96.9084 84.08C103.068 84.08 107.908 80.52 111.428 73.4C114.948 66.2 116.708 56.4 116.708 44C116.708 31.6 114.948 21.84 111.428 14.72C107.908 7.52 103.068 3.92 96.9084 3.92Z" fill="#CEBD88"/>
</svg>
