<svg width="20" height="35" viewBox="0 0 20 35" fill="none" xmlns="http://www.w3.org/2000/svg">
<path d="M17.8947 35C17.3245 34.8246 16.9298 34.4298 16.5351 34.0351C11.4912 28.9912 6.44734 23.9474 1.40349 18.9035C0.701732 18.2018 0.526294 17.3684 1.00875 16.6228C1.09647 16.4474 1.22805 16.2719 1.40349 16.1404C6.53506 10.9649 11.6666 5.78947 16.8421 0.614036C17.807 -0.350876 19.2544 -0.175434 19.8245 1.00877C20.1316 1.62281 20.0438 2.23684 19.6491 2.80702C19.5175 2.98246 19.3859 3.11404 19.2544 3.24561C14.6052 7.89474 9.95612 12.5439 5.26314 17.2368C5.17542 17.3246 5.04384 17.4123 4.91226 17.4561C4.91226 17.5 4.91226 17.5439 4.91226 17.5877C5.04384 17.6754 5.17542 17.7193 5.26314 17.807C9.95612 22.5 14.6491 27.1491 19.2982 31.8421C20 32.5439 20.1316 33.4211 19.693 34.1667C19.4298 34.6053 18.9912 34.8246 18.5087 35C18.3333 35 18.114 35 17.8947 35Z" fill="white"/>
</svg>
