<svg width="18" height="13" viewBox="0 0 18 13" fill="none" xmlns="http://www.w3.org/2000/svg">
<path d="M6.104 12L3.448 7.44H1.688V12H0.232V0.848H3.832C4.67467 0.848 5.384 0.992 5.96 1.28C6.54667 1.568 6.984 1.95733 7.272 2.448C7.56 2.93867 7.704 3.49867 7.704 4.128C7.704 4.896 7.48 5.57333 7.032 6.16C6.59467 6.74667 5.93333 7.136 5.048 7.328L7.848 12H6.104ZM1.688 6.272H3.832C4.62133 6.272 5.21333 6.08 5.608 5.696C6.00267 5.30133 6.2 4.77867 6.2 4.128C6.2 3.46667 6.00267 2.95467 5.608 2.592C5.224 2.22933 4.632 2.048 3.832 2.048H1.688V6.272ZM17.7424 3.232V12H16.2864V10.704C16.009 11.152 15.6197 11.504 15.1184 11.76C14.6277 12.0053 14.0837 12.128 13.4864 12.128C12.8037 12.128 12.1904 11.9893 11.6464 11.712C11.1024 11.424 10.6704 10.9973 10.3504 10.432C10.041 9.86667 9.88638 9.17867 9.88638 8.368V3.232H11.3264V8.176C11.3264 9.04 11.545 9.70667 11.9824 10.176C12.4197 10.6347 13.017 10.864 13.7744 10.864C14.553 10.864 15.1664 10.624 15.6144 10.144C16.0624 9.664 16.2864 8.96533 16.2864 8.048V3.232H17.7424Z" fill="white"/>
</svg>
