<svg width="78" height="18" viewBox="0 0 78 18" fill="none" xmlns="http://www.w3.org/2000/svg">
<path d="M0.9 17.24C0.94 16.84 1 16.52 1.08 16.28C1.17333 16.04 1.28667 15.8267 1.42 15.64C1.56667 15.4667 1.74 15.2733 1.94 15.06C2.38 14.5933 2.77333 14.1733 3.12 13.8C3.46667 13.4267 3.80667 13.06 4.14 12.7C4.47333 12.3267 4.82667 11.9133 5.2 11.46C5.58667 11.0067 6.03333 10.4733 6.54 9.86C6.48667 9.40667 6.44 8.97333 6.4 8.56C6.36 8.13333 6.32667 7.73333 6.3 7.36C6.27333 6.97333 6.25333 6.61333 6.24 6.28C6.22667 5.93333 6.21333 5.61333 6.2 5.32C6.16 4.38667 6.11333 3.62667 6.06 3.04C6.02 2.45333 5.92667 2.02 5.78 1.74C5.63333 1.46 5.38 1.32 5.02 1.32C4.68667 1.32 4.4 1.42 4.16 1.62C3.92 1.80667 3.72 2.06 3.56 2.38C3.4 2.68667 3.28 3.01333 3.2 3.36C3.12 3.70667 3.08 4.04 3.08 4.36C3.08 4.82667 3.16667 5.25333 3.34 5.64C2.68667 5.64 2.22667 5.49333 1.96 5.2C1.69333 4.90667 1.56 4.54667 1.56 4.12C1.56 3.69333 1.66667 3.27333 1.88 2.86C2.09333 2.43333 2.38 2.04667 2.74 1.7C3.1 1.35333 3.51333 1.07333 3.98 0.86C4.44667 0.646666 4.94 0.539999 5.46 0.539999C6.1 0.539999 6.60667 0.706666 6.98 1.04C7.35333 1.37333 7.62667 1.81333 7.8 2.36C7.98667 2.89333 8.10667 3.48 8.16 4.12C8.21333 4.74667 8.24 5.36667 8.24 5.98C8.25333 6.59333 8.27333 7.13333 8.3 7.6C9.32667 6.21333 10.2 4.92 10.92 3.72C11.6533 2.50667 12.26 1.41333 12.74 0.439999C12.8467 0.506666 12.9667 0.653332 13.1 0.879999C13.2333 1.09333 13.3 1.3 13.3 1.5C13.3 1.76667 13.1667 2.16 12.9 2.68C12.6467 3.18667 12.2933 3.78667 11.84 4.48C11.3867 5.16 10.86 5.9 10.26 6.7C9.66 7.48667 9.02 8.29333 8.34 9.12C8.38 9.96 8.44667 10.7667 8.54 11.54C8.63333 12.3133 8.75333 13.0067 8.9 13.62C9.06 14.22 9.25333 14.6933 9.48 15.04C9.70667 15.4 9.96667 15.58 10.26 15.58C10.6867 15.58 11.1867 15.2133 11.76 14.48C12.3333 13.7333 13.0067 12.6933 13.78 11.36L14.22 11.72C13.6733 12.8 13.1667 13.7 12.7 14.42C12.2467 15.14 11.7867 15.68 11.32 16.04C10.8533 16.4133 10.3333 16.6 9.76 16.6C9.18667 16.6 8.71333 16.4333 8.34 16.1C7.96667 15.7667 7.66667 15.3333 7.44 14.8C7.21333 14.2533 7.04 13.6667 6.92 13.04C6.81333 12.4 6.72667 11.78 6.66 11.18C5.88667 12.1 5.12 12.9733 4.36 13.8C3.6 14.6133 2.91333 15.32 2.3 15.92C1.7 16.5333 1.23333 16.9733 0.9 17.24ZM14.7836 15.6C14.1969 15.6 13.7569 15.4267 13.4636 15.08C13.1703 14.7333 13.0236 14.3133 13.0236 13.82C13.0236 13.5133 13.0769 13.1267 13.1836 12.66C13.2903 12.1933 13.4369 11.7067 13.6236 11.2C13.8236 10.68 14.0503 10.1933 14.3036 9.74C14.5569 9.28667 14.8303 8.92 15.1236 8.64C15.4169 8.34667 15.7103 8.2 16.0036 8.2C16.1636 8.2 16.3036 8.25333 16.4236 8.36C16.5436 8.45333 16.6036 8.59333 16.6036 8.78C16.6036 8.95333 16.4969 9.21333 16.2836 9.56C16.0836 9.90667 15.8436 10.3067 15.5636 10.76C15.2969 11.2133 15.0569 11.6867 14.8436 12.18C14.6436 12.66 14.5436 13.12 14.5436 13.56C14.5436 13.9867 14.6169 14.2733 14.7636 14.42C14.9236 14.5533 15.1503 14.62 15.4436 14.62C15.8969 14.62 16.3903 14.3933 16.9236 13.94C17.4569 13.4867 18.0103 12.6933 18.5836 11.56L18.8836 11.88C18.4169 13.0533 17.8236 13.9667 17.1036 14.62C16.3836 15.2733 15.6103 15.6 14.7836 15.6ZM17.1436 6.58C16.8903 6.58 16.6569 6.52 16.4436 6.4C16.2436 6.26667 16.1436 6.06667 16.1436 5.8C16.1436 5.48 16.3169 5.20667 16.6636 4.98C17.0103 4.75333 17.3703 4.64 17.7436 4.64C17.9836 4.64 18.1836 4.69333 18.3436 4.8C18.5169 4.90667 18.6036 5.1 18.6036 5.38C18.6036 5.66 18.4503 5.93333 18.1436 6.2C17.8369 6.45333 17.5036 6.58 17.1436 6.58ZM19.4464 15.6C19.1931 15.6 18.9331 15.5333 18.6664 15.4C18.4131 15.28 18.1997 15.0867 18.0264 14.82C17.8397 14.5533 17.7464 14.2133 17.7464 13.8C17.7464 13.36 17.8531 12.8667 18.0664 12.32C18.2797 11.7733 18.5664 11.2267 18.9264 10.68C19.2997 10.1333 19.7264 9.63333 20.2064 9.18C20.6997 8.72667 21.2197 8.36 21.7664 8.08C22.3131 7.8 22.8664 7.66 23.4264 7.66C23.7331 7.66 23.9731 7.71333 24.1464 7.82C24.3197 7.91333 24.4064 8.07333 24.4064 8.3C24.4064 8.36667 24.3931 8.44667 24.3664 8.54C24.3397 8.62 24.2731 8.69333 24.1664 8.76C24.1131 8.68 24.0197 8.62667 23.8864 8.6C23.7531 8.56 23.6131 8.54 23.4664 8.54C23.0264 8.54 22.6064 8.66667 22.2064 8.92C21.8064 9.16 21.4397 9.47333 21.1064 9.86C20.7731 10.2467 20.4797 10.6667 20.2264 11.12C19.9864 11.5733 19.7997 12.0133 19.6664 12.44C19.5331 12.8533 19.4664 13.2133 19.4664 13.52C19.4664 13.7733 19.5197 13.98 19.6264 14.14C19.7331 14.2867 19.8931 14.36 20.1064 14.36C20.4664 14.36 20.8931 14.1533 21.3864 13.74C21.8931 13.3133 22.4064 12.7067 22.9264 11.92C23.4597 11.12 23.9397 10.1667 24.3664 9.06C24.6597 8.3 24.9664 7.52667 25.2864 6.74C25.6064 5.94 25.9264 5.17333 26.2464 4.44C26.5664 3.70667 26.8797 3.05333 27.1864 2.48C27.5064 1.90667 27.8064 1.45333 28.0864 1.12C28.3797 0.773333 28.6464 0.599999 28.8864 0.599999C29.0331 0.599999 29.1597 0.659999 29.2664 0.779999C29.3864 0.886666 29.4464 1.02667 29.4464 1.2C29.4464 1.42667 29.3331 1.79333 29.1064 2.3C28.8931 2.79333 28.6131 3.38667 28.2664 4.08C27.9331 4.77333 27.5664 5.52667 27.1664 6.34C26.7797 7.14 26.4131 7.96667 26.0664 8.82C25.7331 9.66 25.4531 10.4933 25.2264 11.32C25.0131 12.1333 24.9064 12.9 24.9064 13.62C24.9064 13.94 24.9331 14.16 24.9864 14.28C25.0531 14.3867 25.1597 14.44 25.3064 14.44C25.5997 14.44 25.9264 14.3267 26.2864 14.1C26.6464 13.8733 27.0131 13.54 27.3864 13.1C27.7597 12.6467 28.0997 12.1067 28.4064 11.48L28.7864 11.8C28.4931 12.5333 28.1197 13.18 27.6664 13.74C27.2131 14.3 26.7264 14.7333 26.2064 15.04C25.6864 15.36 25.1731 15.52 24.6664 15.52C24.1197 15.52 23.7397 15.3467 23.5264 15C23.3131 14.6533 23.2064 14.2467 23.2064 13.78C23.2064 13.5667 23.2197 13.3533 23.2464 13.14C23.2864 12.9133 23.3264 12.6933 23.3664 12.48C22.9531 13.08 22.5131 13.62 22.0464 14.1C21.5931 14.5667 21.1464 14.9333 20.7064 15.2C20.2664 15.4667 19.8464 15.6 19.4464 15.6ZM38.3506 15.62C37.8306 15.62 37.444 15.4667 37.1906 15.16C36.9373 14.8533 36.8106 14.4867 36.8106 14.06C36.8106 13.7533 36.8573 13.4467 36.9506 13.14C37.044 12.8333 37.1373 12.5333 37.2306 12.24C37.324 11.9333 37.3706 11.66 37.3706 11.42C37.3706 11.1933 37.324 11.04 37.2306 10.96C37.1506 10.8667 37.044 10.82 36.9106 10.82C36.604 10.82 36.244 11.0533 35.8306 11.52C35.4306 11.9867 34.9306 12.6667 34.3306 13.56C34.1173 13.88 33.9173 14.22 33.7306 14.58C33.544 14.9267 33.3773 15.22 33.2306 15.46C33.1106 15.46 32.9506 15.44 32.7506 15.4C32.564 15.36 32.3973 15.3 32.2506 15.22C32.104 15.1533 32.0306 15.06 32.0306 14.94C32.0306 14.82 32.0973 14.5867 32.2306 14.24C32.364 13.8933 32.5173 13.4933 32.6906 13.04C32.864 12.5733 33.0173 12.12 33.1506 11.68C33.284 11.2267 33.3506 10.8467 33.3506 10.54C33.3506 10.3533 33.3173 10.2067 33.2506 10.1C33.184 9.99333 33.0773 9.94 32.9306 9.94C32.6506 9.94 32.3106 10.1067 31.9106 10.44C31.524 10.7733 31.1106 11.2133 30.6706 11.76C30.244 12.2933 29.8373 12.8933 29.4506 13.56C29.0773 14.2133 28.7706 14.8733 28.5306 15.54C28.384 15.54 28.204 15.5067 27.9906 15.44C27.7773 15.3867 27.5906 15.3133 27.4306 15.22C27.2706 15.14 27.1906 15.0667 27.1906 15C27.1906 14.9867 27.2373 14.8 27.3306 14.44C27.424 14.0667 27.5373 13.6067 27.6706 13.06C27.804 12.5133 27.944 11.9533 28.0906 11.38C28.2373 10.8067 28.364 10.3067 28.4706 9.88C28.5106 9.73333 28.6573 9.60667 28.9106 9.5C29.164 9.38 29.384 9.32 29.5706 9.32C29.7573 9.32 29.9173 9.38 30.0506 9.5C30.184 9.62 30.2506 9.78 30.2506 9.98C30.2506 10.1133 30.224 10.3067 30.1706 10.56C30.1173 10.8133 30.0506 11.1 29.9706 11.42C30.2506 11.0467 30.544 10.68 30.8506 10.32C31.1706 9.94667 31.4973 9.61333 31.8306 9.32C32.1773 9.02667 32.5173 8.79333 32.8506 8.62C33.1973 8.44667 33.5373 8.36 33.8706 8.36C34.364 8.36 34.6973 8.54 34.8706 8.9C35.044 9.24667 35.1306 9.62667 35.1306 10.04C35.1306 10.2133 35.1173 10.3867 35.0906 10.56C35.064 10.72 35.024 10.8867 34.9706 11.06C34.9306 11.22 34.8706 11.4133 34.7906 11.64C35.044 11.2667 35.3173 10.9267 35.6106 10.62C35.9173 10.3 36.244 10.0467 36.5906 9.86C36.9373 9.67333 37.304 9.58 37.6906 9.58C38.2106 9.58 38.5706 9.74 38.7706 10.06C38.9706 10.3667 39.0706 10.7067 39.0706 11.08C39.0706 11.4267 39.0106 11.7933 38.8906 12.18C38.784 12.5533 38.6706 12.9133 38.5506 13.26C38.444 13.5933 38.3906 13.88 38.3906 14.12C38.3906 14.2533 38.424 14.38 38.4906 14.5C38.5573 14.6067 38.6906 14.66 38.8906 14.66C39.2506 14.66 39.5973 14.4933 39.9306 14.16C40.264 13.8267 40.5706 13.42 40.8506 12.94C41.144 12.4467 41.3906 11.98 41.5906 11.54L41.9306 11.96C41.7173 12.5067 41.4373 13.0667 41.0906 13.64C40.7573 14.2 40.364 14.6667 39.9106 15.04C39.4573 15.4267 38.9373 15.62 38.3506 15.62ZM43.7337 15.88C43.1871 15.88 42.7471 15.74 42.4137 15.46C42.0938 15.1933 41.9338 14.8133 41.9338 14.32C41.9338 13.8267 42.0938 13.3667 42.4137 12.94C42.7471 12.5133 43.1804 12.14 43.7138 11.82C44.2604 11.4867 44.8604 11.22 45.5138 11.02C46.1671 10.8067 46.8204 10.68 47.4738 10.64L47.1938 11.38C46.8338 11.3933 46.4271 11.4933 45.9738 11.68C45.5204 11.8667 45.0804 12.1133 44.6538 12.42C44.2404 12.7267 43.8938 13.06 43.6138 13.42C43.3471 13.78 43.2138 14.14 43.2138 14.5C43.2138 14.8467 43.3871 15.02 43.7337 15.02C44.1471 15.02 44.5604 14.8533 44.9738 14.52C45.4004 14.1733 45.7871 13.74 46.1338 13.22C46.4804 12.7 46.7604 12.1667 46.9737 11.62C47.1871 11.0733 47.2938 10.6 47.2938 10.2C47.2938 9.8 47.1871 9.44 46.9737 9.12C46.7738 8.8 46.4271 8.64 45.9338 8.64C45.3604 8.64 44.8604 8.83333 44.4338 9.22C44.0204 9.59333 43.7004 10.14 43.4738 10.86C43.2604 10.8333 43.0604 10.76 42.8738 10.64C42.6871 10.5067 42.5938 10.32 42.5938 10.08C42.5938 9.68 42.7538 9.30667 43.0738 8.96C43.4071 8.61333 43.8404 8.33333 44.3738 8.12C44.9204 7.89333 45.5004 7.78 46.1138 7.78C47.0071 7.78 47.6871 8.01333 48.1538 8.48C48.6204 8.93333 48.8538 9.50667 48.8538 10.2C48.8538 10.7867 48.7004 11.4133 48.3938 12.08C48.1004 12.7333 47.7071 13.3533 47.2138 13.94C46.7204 14.5133 46.1671 14.98 45.5538 15.34C44.9538 15.7 44.3471 15.88 43.7337 15.88ZM51.7223 15.92C51.1357 15.92 50.6623 15.7467 50.3023 15.4C49.9423 15.0533 49.7623 14.5267 49.7623 13.82C49.7623 13.2733 49.8623 12.5933 50.0623 11.78C50.2757 10.9667 50.5423 10.1267 50.8623 9.26C50.769 9.23333 50.6557 9.21333 50.5223 9.2C50.4023 9.17333 50.2823 9.13333 50.1623 9.08V8.46C50.3757 8.48667 50.549 8.50667 50.6823 8.52C50.829 8.53333 50.9757 8.54667 51.1223 8.56C51.4023 7.85333 51.7023 7.17333 52.0223 6.52C52.3557 5.85333 52.6823 5.26 53.0023 4.74C53.3357 4.22 53.649 3.81333 53.9423 3.52C54.2357 3.21333 54.4957 3.06 54.7223 3.06C54.8557 3.06 54.9823 3.11333 55.1023 3.22C55.2223 3.31333 55.2823 3.45333 55.2823 3.64C55.2823 3.90667 55.1423 4.28667 54.8623 4.78C54.5957 5.27333 54.2623 5.85333 53.8623 6.52C53.4623 7.17333 53.0757 7.87333 52.7023 8.62C52.809 8.62 52.9157 8.62 53.0223 8.62C53.129 8.62 53.229 8.62 53.3223 8.62C53.909 8.62 54.4357 8.61333 54.9023 8.6C55.3823 8.57333 55.869 8.53333 56.3623 8.48V9.14C55.629 9.20667 54.9557 9.26 54.3423 9.3C53.729 9.34 53.1423 9.36667 52.5823 9.38C52.5423 9.38 52.5023 9.38 52.4623 9.38C52.4223 9.38 52.3823 9.38 52.3423 9.38C52.0623 10.0333 51.8157 10.7067 51.6023 11.4C51.4023 12.08 51.3023 12.7467 51.3023 13.4C51.3023 13.9467 51.389 14.3333 51.5623 14.56C51.7357 14.7867 52.009 14.9 52.3823 14.9C53.049 14.9 53.729 14.6 54.4223 14C55.129 13.3867 55.7423 12.56 56.2623 11.52L56.5423 11.72C56.1957 12.5067 55.7623 13.22 55.2423 13.86C54.7357 14.5 54.1823 15 53.5823 15.36C52.9823 15.7333 52.3623 15.92 51.7223 15.92ZM57.3841 15.6C56.7574 15.6 56.3174 15.3933 56.0641 14.98C55.8241 14.5533 55.7041 14.0533 55.7041 13.48C55.7041 12.8267 55.8241 12.06 56.0641 11.18C56.3041 10.3 56.6174 9.38 57.0041 8.42C57.4041 7.44667 57.8374 6.5 58.3041 5.58C58.7841 4.64667 59.2641 3.80667 59.7441 3.06C60.2241 2.31333 60.6641 1.72 61.0641 1.28C61.4774 0.826666 61.8107 0.599999 62.0641 0.599999C62.2374 0.599999 62.3841 0.693333 62.5041 0.879999C62.6241 1.05333 62.7174 1.26667 62.7841 1.52C62.8641 1.76 62.9041 1.98667 62.9041 2.2C62.9041 2.56 62.8107 3.03333 62.6241 3.62C62.4507 4.19333 62.1974 4.82667 61.8641 5.52C61.5441 6.21333 61.1574 6.92667 60.7041 7.66C60.2641 8.38 59.7707 9.06667 59.2241 9.72C58.6907 10.3733 58.1174 10.94 57.5041 11.42C57.4507 11.7533 57.3974 12.0867 57.3441 12.42C57.3041 12.74 57.2841 13.0333 57.2841 13.3C57.2841 13.78 57.3641 14.1333 57.5241 14.36C57.6841 14.5733 57.8907 14.68 58.1441 14.68C58.4774 14.68 58.8174 14.5267 59.1641 14.22C59.5241 13.9 59.8641 13.5 60.1841 13.02C60.5174 12.5267 60.8041 12.02 61.0441 11.5L61.5241 11.76C60.9507 12.9467 60.3107 13.8867 59.6041 14.58C58.8974 15.26 58.1574 15.6 57.3841 15.6ZM57.8641 10.18C58.3174 9.68667 58.7441 9.15333 59.1441 8.58C59.5574 7.99333 59.9307 7.4 60.2641 6.8C60.6107 6.2 60.9107 5.62 61.1641 5.06C61.4174 4.5 61.6107 4 61.7441 3.56C61.8907 3.10667 61.9707 2.74667 61.9841 2.48C61.9841 2.46667 61.9841 2.46 61.9841 2.46C61.9841 2.44667 61.9841 2.43333 61.9841 2.42C61.8774 2.42 61.7041 2.57333 61.4641 2.88C61.2374 3.17333 60.9641 3.58 60.6441 4.1C60.3241 4.62 59.9907 5.21333 59.6441 5.88C59.3107 6.54667 58.9841 7.25333 58.6641 8C58.3574 8.73333 58.0907 9.46 57.8641 10.18ZM63.2064 15.88C62.6597 15.88 62.2197 15.74 61.8864 15.46C61.5664 15.1933 61.4064 14.8133 61.4064 14.32C61.4064 13.8267 61.5664 13.3667 61.8864 12.94C62.2197 12.5133 62.6531 12.14 63.1864 11.82C63.7331 11.4867 64.3331 11.22 64.9864 11.02C65.6397 10.8067 66.2931 10.68 66.9464 10.64L66.6664 11.38C66.3064 11.3933 65.8997 11.4933 65.4464 11.68C64.9931 11.8667 64.5531 12.1133 64.1264 12.42C63.7131 12.7267 63.3664 13.06 63.0864 13.42C62.8197 13.78 62.6864 14.14 62.6864 14.5C62.6864 14.8467 62.8597 15.02 63.2064 15.02C63.6197 15.02 64.0331 14.8533 64.4464 14.52C64.8731 14.1733 65.2597 13.74 65.6064 13.22C65.9531 12.7 66.2331 12.1667 66.4464 11.62C66.6597 11.0733 66.7664 10.6 66.7664 10.2C66.7664 9.8 66.6597 9.44 66.4464 9.12C66.2464 8.8 65.8997 8.64 65.4064 8.64C64.8331 8.64 64.3331 8.83333 63.9064 9.22C63.4931 9.59333 63.1731 10.14 62.9464 10.86C62.7331 10.8333 62.5331 10.76 62.3464 10.64C62.1597 10.5067 62.0664 10.32 62.0664 10.08C62.0664 9.68 62.2264 9.30667 62.5464 8.96C62.8797 8.61333 63.3131 8.33333 63.8464 8.12C64.3931 7.89333 64.9731 7.78 65.5864 7.78C66.4797 7.78 67.1597 8.01333 67.6264 8.48C68.0931 8.93333 68.3264 9.50667 68.3264 10.2C68.3264 10.7867 68.1731 11.4133 67.8664 12.08C67.5731 12.7333 67.1797 13.3533 66.6864 13.94C66.1931 14.5133 65.6397 14.98 65.0264 15.34C64.4264 15.7 63.8197 15.88 63.2064 15.88ZM73.075 15.52C72.5817 15.52 72.1817 15.3867 71.875 15.12C71.5683 14.8667 71.415 14.52 71.415 14.08C71.415 13.7067 71.5083 13.3067 71.695 12.88C71.8817 12.4533 72.0683 12.0333 72.255 11.62C72.455 11.2067 72.555 10.84 72.555 10.52C72.555 10.2133 72.455 9.96 72.255 9.76C72.055 9.54667 71.8217 9.37333 71.555 9.24C71.2617 9.97333 70.9283 10.6867 70.555 11.38C70.195 12.06 69.9017 12.5933 69.675 12.98L69.375 12.4C69.5617 12.0533 69.8083 11.56 70.115 10.92C70.4217 10.28 70.715 9.56667 70.995 8.78C70.8617 8.64667 70.795 8.46667 70.795 8.24C70.795 7.89333 70.9017 7.56667 71.115 7.26C71.3283 6.95333 71.535 6.8 71.735 6.8C71.895 6.8 72.0083 6.89333 72.075 7.08C72.155 7.25333 72.195 7.37333 72.195 7.44C72.195 7.50667 72.1617 7.62667 72.095 7.8C72.0417 7.97333 72.0017 8.1 71.975 8.18C71.9883 8.32667 72.1017 8.47333 72.315 8.62C72.5417 8.75333 72.795 8.91333 73.075 9.1C73.355 9.28667 73.6017 9.52 73.815 9.8C74.0283 10.08 74.135 10.4333 74.135 10.86C74.135 11.2467 74.0483 11.64 73.875 12.04C73.7017 12.44 73.5283 12.8133 73.355 13.16C73.1817 13.5067 73.095 13.8067 73.095 14.06C73.095 14.2467 73.1417 14.3733 73.235 14.44C73.3417 14.4933 73.4617 14.52 73.595 14.52C73.915 14.52 74.2483 14.4267 74.595 14.24C74.9417 14.04 75.2817 13.7867 75.615 13.48C75.9483 13.1733 76.2417 12.8533 76.495 12.52C76.7483 12.1733 76.9417 11.86 77.075 11.58L77.555 11.94C77.3017 12.5133 76.935 13.08 76.455 13.64C75.975 14.1867 75.4417 14.64 74.855 15C74.2683 15.3467 73.675 15.52 73.075 15.52Z" fill="#CEBD88"/>
</svg>
