<svg width="20" height="16" viewBox="0 0 20 16" fill="none" xmlns="http://www.w3.org/2000/svg">
<path d="M18.9002 1.8999C18.5002 2.0999 18.0002 2.20005 17.6002 2.30005C18.1002 1.80005 18.5002 1.2001 18.7002 0.600098C18.7002 0.500098 18.7002 0.400049 18.6002 0.300049C18.5002 0.300049 18.5002 0.300049 18.4002 0.300049C17.8002 0.700049 17.1002 1.0001 16.4002 1.1001H16.3002C16.2002 1.1001 16.0002 1.1 15.9002 1C15.1002 0.3 14.2002 0 13.2002 0C12.8002 0 12.3002 0.0999512 11.9002 0.199951C10.6002 0.599951 9.5002 1.7001 9.2002 3.1001C9.10019 3.6001 9.00016 4.1001 9.10016 4.6001V4.69995L9.00018 4.80005C6.10018 4.50005 3.40018 3.10005 1.50018 0.800049C1.40018 0.700049 1.3002 0.700049 1.2002 0.800049C1.2002 0.800049 1.2002 0.799902 1.2002 0.899902C0.200195 2.4999 0.500208 4.5999 1.90021 5.8999C1.60021 5.7999 1.30018 5.7 1.00018 5.5C0.900183 5.4 0.800195 5.5001 0.700195 5.6001V5.69995C0.700195 7.29995 1.60016 8.8 3.10016 9.5H3.00018C2.80018 9.5 2.50017 9.4999 2.30017 9.3999C2.20017 9.3999 2.10018 9.5001 2.00018 9.6001V9.69995C2.50018 11.2 3.70017 12.3 5.30017 12.5C4.00017 13.4 2.50018 13.8 1.00018 13.8H0.500183C0.400183 13.8 0.200195 13.9 0.200195 14C0.200195 14.1 0.200208 14.2999 0.400208 14.3999C2.10021 15.3999 4.10016 15.8999 6.10016 15.8999C7.80016 15.8999 9.50018 15.5999 11.0002 14.8999C12.4002 14.2999 13.6002 13.4 14.6002 12.2C15.5002 11.1 16.3002 9.9 16.8002 8.5C17.3002 7.2 17.5002 5.9 17.5002 4.5V4.3999C17.5002 4.1999 17.6002 3.9999 17.8002 3.8999C18.4002 3.3999 19.0002 2.8001 19.4002 2.1001C19.5002 2.0001 19.4002 1.90005 19.3002 1.80005C19.1002 1.80005 19.0002 1.7999 18.9002 1.8999Z" fill="#CEBD88"/>
</svg>
