<svg width="162" height="17" viewBox="0 0 162 17" fill="none" xmlns="http://www.w3.org/2000/svg">
<path d="M83.9002 2.8999C83.5002 3.0999 83.0002 3.20005 82.6002 3.30005C83.1002 2.80005 83.5002 2.2001 83.7002 1.6001C83.7002 1.5001 83.7002 1.40005 83.6002 1.30005C83.5002 1.30005 83.5002 1.30005 83.4002 1.30005C82.8002 1.70005 82.1002 2.0001 81.4002 2.1001H81.3002C81.2002 2.1001 81.0002 2.1 80.9002 2C80.1002 1.3 79.2002 1 78.2002 1C77.8002 1 77.3002 1.09995 76.9002 1.19995C75.6002 1.59995 74.5002 2.7001 74.2002 4.1001C74.1002 4.6001 74.0002 5.1001 74.1002 5.6001V5.69995L74.0002 5.80005C71.1002 5.50005 68.4002 4.10005 66.5002 1.80005C66.4002 1.70005 66.3002 1.70005 66.2002 1.80005C66.2002 1.80005 66.2002 1.7999 66.2002 1.8999C65.2002 3.4999 65.5002 5.5999 66.9002 6.8999C66.6002 6.7999 66.3002 6.7 66.0002 6.5C65.9002 6.4 65.8002 6.5001 65.7002 6.6001V6.69995C65.7002 8.29995 66.6002 9.8 68.1002 10.5H68.0002C67.8002 10.5 67.5002 10.4999 67.3002 10.3999C67.2002 10.3999 67.1002 10.5001 67.0002 10.6001V10.7C67.5002 12.2 68.7002 13.3 70.3002 13.5C69.0002 14.4 67.5002 14.8 66.0002 14.8H65.5002C65.4002 14.8 65.2002 14.9 65.2002 15C65.2002 15.1 65.2002 15.2999 65.4002 15.3999C67.1002 16.3999 69.1002 16.8999 71.1002 16.8999C72.8002 16.8999 74.5002 16.5999 76.0002 15.8999C77.4002 15.2999 78.6002 14.4 79.6002 13.2C80.5002 12.1 81.3002 10.9 81.8002 9.5C82.3002 8.2 82.5002 6.9 82.5002 5.5V5.3999C82.5002 5.1999 82.6002 4.9999 82.8002 4.8999C83.4002 4.3999 84.0002 3.8001 84.4002 3.1001C84.5002 3.0001 84.4002 2.90005 84.3002 2.80005C84.1002 2.80005 84.0002 2.7999 83.9002 2.8999Z" fill="#CEBD88"/>
<path d="M113.2 17H113C111.7 17 110.6 16.9999 109.5 16.8999C108.5 16.8999 107.5 16.4999 106.8 15.8999C106.1 15.2999 105.5 14.5 105.3 13.5C105.1 12.7 105 11.8 105.1 11C105.1 10.4 105.1 9.7 105.1 9C105.1 8.3 105.1 7.6 105.1 7C105.1 6.2 105.2 5.3 105.3 4.5C105.5 3.6 106 2.7001 106.8 2.1001C107.6 1.5001 108.5 1.1001 109.5 1.1001C110.6 1.0001 111.8 1 113 1C114.3 1 115.4 1.0001 116.5 1.1001C117.5 1.1001 118.5 1.5001 119.2 2.1001C119.9 2.7001 120.5 3.5 120.7 4.5C120.9 5.3 121 6.2 120.9 7C120.9 7.6 120.9 8.3 120.9 9C120.9 9.7 120.9 10.4 120.9 11C120.9 11.8 120.8 12.7 120.7 13.5C120.5 14.4 120 15.2999 119.2 15.8999C118.4 16.4999 117.5 16.8999 116.5 16.8999C115.5 16.9999 114.4 17 113.2 17ZM113 15.8C114.2 15.8 115.4 15.8 116.5 15.7C117.2 15.7 117.9 15.3999 118.5 14.8999C119 14.4999 119.4 13.9 119.5 13.2C119.7 12.5 119.7 11.7 119.7 11C119.7 10.4 119.7 9.7 119.7 9C119.7 8.3 119.7 7.6 119.7 7C119.7 6.3 119.7 5.50005 119.5 4.80005C119.3 4.10005 119 3.5001 118.4 3.1001C117.8 2.6001 117.1 2.40005 116.4 2.30005C115.3 2.20005 114.2 2.19995 112.9 2.19995C111.7 2.19995 110.5 2.20005 109.4 2.30005C108.7 2.30005 108 2.6001 107.4 3.1001C106.9 3.5001 106.5 4.10005 106.4 4.80005C106.2 5.50005 106.2 6.3 106.2 7C106.2 7.6 106.2 8.3 106.2 9C106.2 9.7 106.2 10.4 106.2 11C106.2 11.7 106.2 12.5 106.4 13.2C106.6 13.9 106.9 14.4999 107.5 14.8999C108.1 15.3999 108.8 15.6 109.5 15.7C110.6 15.7 111.8 15.8 113 15.8ZM113 12.8999C110.8 12.8999 109.1 11.2 109.1 9C109.1 6.8 110.8 5.1001 113 5.1001C115.2 5.1001 116.9 6.8 116.9 9C116.9 11.2 115.1 12.8999 113 12.8999ZM113 6.30005C111.5 6.30005 110.3 7.5 110.3 9C110.3 10.5 111.5 11.7 113 11.7C114.5 11.7 115.7 10.5 115.7 9C115.6 7.5 114.4 6.30005 113 6.30005ZM117.3 3.80005C116.8 3.80005 116.4 4.19995 116.4 4.69995C116.4 5.19995 116.8 5.6001 117.3 5.6001C117.8 5.6001 118.2 5.19995 118.2 4.69995C118.3 4.29995 117.8 3.80005 117.3 3.80005Z" fill="#CEBD88"/>
<path d="M6.5 3.69995H8V1.19995C7.3 1.09995 6.60002 1.1001 5.90002 1.1001C3.80002 1.1001 2.40002 2.3999 2.40002 4.8999V7.1001H0V9.8999H2.29999V17.1001H5.09998V9.8999H7.29999L7.70001 7.1001H5.09998V5.1001C5.19998 4.2001 5.4 3.69995 6.5 3.69995Z" fill="#CEBD88"/>
<path d="M44.2002 16.2V10.2C44.2002 7.3 43.6002 5 40.2002 5C38.9002 5 37.7002 5.6 37.0002 6.8V5.4H33.7002V16.2H37.1002V10.8C37.1002 9.4 37.4002 8 39.1002 8C40.8002 8 40.9002 9.6 40.9002 10.9V16.2H44.2002Z" fill="#CEBD88"/>
<path d="M28.2998 5.4H31.6998V16.2H28.2998V5.4Z" fill="#CEBD88"/>
<path d="M29.9 0C28.9 0 28 0.9 28 2C28 3.1 28.9 4 30 4C31.1 4 32 3.1 32 2C31.9 0.9 31 0 29.9 0Z" fill="#CEBD88"/>
<path d="M149.7 4.50005C149.4 4.30005 149 4.40005 148.8 4.70005C148.7 4.80005 148.7 4.90005 148.7 5.00005V11.1C148.7 11.5 149 11.8 149.4 11.8C149.5 11.8 149.6 11.8 149.7 11.7L154.8 8.60005C155.1 8.40005 155.2 8.00005 155 7.70005C154.9 7.60005 154.9 7.50005 154.8 7.50005L149.7 4.50005ZM150 10V6.20005L153.2 8.10005L150 10Z" fill="#CEBD88"/>
<path d="M158.4 0.500049C153.8 -0.0999512 149.2 -0.0999512 144.6 0.500049C142.9 0.700049 141.6 2.00005 141.4 3.60005C140.9 6.60005 140.9 9.60005 141.4 12.5C141.7 14.1 143 15.4 144.6 15.7C146.9 16 149.2 16.2001 151.5 16.2001C153.8 16.2001 156.1 16.1 158.4 15.7C160 15.4 161.3 14.2 161.6 12.5C162.1 9.50005 162.1 6.50005 161.6 3.60005C161.4 2.00005 160.1 0.700049 158.4 0.500049ZM160.3 12.3C160.1 13.4 159.3 14.2 158.2 14.4C153.7 15 149.2 15 144.7 14.4C143.6 14.2 142.8 13.4 142.6 12.3C142.1 9.50005 142.1 6.60005 142.6 3.80005C142.8 2.70005 143.6 1.90005 144.7 1.70005C147 1.50005 149.3 1.30005 151.5 1.30005C153.8 1.30005 156 1.40005 158.2 1.70005C159.3 1.90005 160.1 2.70005 160.3 3.80005C160.8 6.70005 160.8 9.50005 160.3 12.3Z" fill="#CEBD88"/>
</svg>
