<svg width="21" height="17" viewBox="0 0 21 17" fill="none" xmlns="http://www.w3.org/2000/svg">
<path d="M17.3999 0.500049C12.7999 -0.0999512 8.1999 -0.0999512 3.5999 0.500049C1.8999 0.700049 0.599902 2.00005 0.399902 3.60005C-0.100098 6.60005 -0.100098 9.60005 0.399902 12.5C0.699902 14.1 1.9999 15.4 3.5999 15.7C5.8999 16 8.1999 16.2001 10.4999 16.2001C12.7999 16.2001 15.0999 16.1 17.3999 15.7C18.9999 15.4 20.2999 14.2 20.5999 12.5C21.0999 9.50005 21.0999 6.50005 20.5999 3.60005C20.3999 2.00005 19.0999 0.700049 17.3999 0.500049ZM19.2999 12.3C19.0999 13.4 18.2999 14.2 17.1999 14.4C12.6999 15 8.1999 15 3.6999 14.4C2.5999 14.2 1.7999 13.4 1.5999 12.3C1.0999 9.50005 1.0999 6.60005 1.5999 3.80005C1.7999 2.70005 2.5999 1.90005 3.6999 1.70005C5.9999 1.50005 8.2999 1.30005 10.4999 1.30005C12.7999 1.30005 14.9999 1.40005 17.1999 1.70005C18.2999 1.90005 19.0999 2.70005 19.2999 3.80005C19.7999 6.70005 19.7999 9.50005 19.2999 12.3Z" fill="#CEBD88"/>
</svg>
